Coordinates
version=1
nRows=19
nColumns=24
inDegrees=yes

Units are S.I. units (second, meters, Newtons, ...)
Angles are in degrees.

endheader
time	pelvis_tilt	pelvis_list	pelvis_rotation	pelvis_tx	pelvis_ty	pelvis_tz	hip_flexion_r	hip_adduction_r	hip_rotation_r	knee_angle_r	ankle_angle_r	subtalar_angle_r	mtp_angle_r	hip_flexion_l	hip_adduction_l	hip_rotation_l	knee_angle_l	ankle_angle_l	subtalar_angle_l	mtp_angle_l	lumbar_extension	lumbar_bending	lumbar_rotation
      0.70400000	     -0.28661600	     -3.95815630	     -5.31672860	     -0.50588809	      1.01063077	      0.34312934	     13.15938156	      6.86423877	     -2.68122070	    -17.82346191	     -0.24087424	     -9.69145676	      0.87911319	     21.58106658	    -10.89079701	    -10.23658074	    -76.53864893	      2.58903329	    -13.72461816	     -0.10367785	    -11.81384950	      5.40227385	      9.50177133
      0.70816667	     -0.15148005	     -3.79157285	     -5.56816496	     -0.50054696	      1.01201123	      0.34383910	     12.52126871	      6.74819668	     -2.31097699	    -17.50548070	     -0.21223713	     -9.74618335	      0.87008003	     21.95646028	    -10.79195360	    -10.46390253	    -76.21705802	      2.87057728	    -13.55513840	     -0.35192423	    -11.96842861	      5.13284606	      9.90791683
      0.71233333	     -0.14978696	     -3.70040528	     -5.66461082	     -0.49516086	      1.01307522	      0.34412554	     12.01444444	      6.66491724	     -2.15582120	    -17.16722045	     -0.15966168	     -9.74330997	      0.86845771	     22.53963282	    -10.69577648	    -10.49905541	    -75.89450172	      3.09370804	    -13.62526304	     -0.38352480	    -11.93914521	      5.02444642	      9.94860782
      0.71650000	      0.03347648	     -3.50477765	     -5.93596415	     -0.48978159	      1.01454427	      0.34488114	     11.31453938	      6.51063407	     -1.74876017	    -16.81989349	     -0.16743465	     -9.84402640	      0.84925338	     22.79432799	    -10.57027969	    -10.79786141	    -75.36871518	      3.25966166	    -13.59457070	     -0.64212621	    -12.14255184	      4.70265089	     10.30915958
      0.72066667	      0.16626648	     -3.37934781	     -6.10433326	     -0.48438581	      1.01583750	      0.34536112	     10.65483085	      6.39661200	     -1.48194372	    -16.44725677	     -0.17133504	     -9.90699902	      0.82398690	     23.13521007	    -10.46790146	    -10.96845623	    -74.82607026	      3.44165311	    -13.62295597	     -0.90053535	    -12.27347194	      4.50977896	     10.51080906
      0.72483333	      0.15660243	     -3.27468884	     -6.20471493	     -0.47897742	      1.01680637	      0.34562315	     10.16203034	      6.28937189	     -1.32454661	    -16.10145802	     -0.17679498	     -9.90806604	      0.81645190	     23.65415188	    -10.35461492	    -11.04724033	    -74.26341429	      3.64949625	    -13.69312320	     -0.95978708	    -12.23667320	      4.38454151	     10.56493837
      0.72900000	      0.37866291	     -3.11328551	     -6.45933113	     -0.47356535	      1.01823912	      0.34634299	      9.40320465	      6.14617595	     -0.94253204	    -15.71962475	     -0.15011200	     -9.97634133	      0.77833589	     23.79737769	    -10.25738579	    -11.36875632	    -73.51550402	      3.74240488	    -13.78930429	     -1.22968943	    -12.47012270	      4.09215077	     10.85581109
      0.73316667	      0.50182027	     -2.97891755	     -6.63163446	     -0.46813604	      1.01942950	      0.34683501	      8.75303119	      6.01276546	     -0.67156521	    -15.34005996	     -0.16146254	    -10.05685086	      0.73274852	     24.06808639	    -10.14754213	    -11.58580078	    -72.73819155	      3.84202328	    -13.88489735	     -1.48483677	    -12.58207582	      3.87805479	     11.02406412
      0.73733333	      0.59123634	     -2.84795822	     -6.76897011	     -0.46269933	      1.02051109	      0.34723573	      8.14336596	      5.87425363	     -0.45053483	    -14.96932997	     -0.15188858	    -10.15563400	      0.69415551	     24.36834904	    -10.02299536	    -11.77033182	    -71.89911509	      3.87981724	    -14.00689046	     -1.66086706	    -12.64718185	      3.68680959	     11.14990418
      0.74150000	      0.74191369	     -2.72447526	     -6.94873394	     -0.45725984	      1.02167257	      0.34775070	      7.45780294	      5.74259954	     -0.17256755	    -14.57385288	     -0.17622448	    -10.20014681	      0.63475643	     24.55072372	     -9.92669808	    -12.02018650	    -70.97952786	      3.97545586	    -14.10869672	     -1.89256923	    -12.79548982	      3.46656050	     11.33864783
      0.74566667	      0.71642747	     -2.63011236	     -7.01611613	     -0.45180664	      1.02242351	      0.34795951	      6.97602667	      5.63315794	     -0.05164181	    -14.21037219	     -0.21247754	    -10.28176204	      0.61594459	     24.96681045	     -9.80937624	    -12.11670340	    -70.05888568	      4.04323055	    -14.19868039	     -1.95013291	    -12.72536846	      3.35263807	     11.39013055
      0.74983333	      0.96070246	     -2.48635512	     -7.23044722	     -0.44638834	      1.02369127	      0.34857863	      6.19371391	      5.47340768	      0.28725503	    -13.82064279	     -0.16552312	    -10.40526637	      0.55399865	     24.96840159	     -9.70018272	    -12.45303137	    -68.95718538	      3.98638774	    -14.41419546	     -2.13344429	    -12.98252425	      3.07916740	     11.57443469
      0.75400000	      1.13333584	     -2.38549511	     -7.38231828	     -0.44091434	      1.02475676	      0.34902030	      5.47985149	      5.34410652	      0.51551116	    -13.41342566	     -0.22357809	    -10.47417374	      0.46686890	     25.05007458	     -9.60787635	    -12.70334635	    -67.83679155	      4.03880296	    -14.47555923	     -2.35074625	    -13.14321899	      2.89389893	     11.75826610
      0.75816667	      1.21377582	     -2.29078683	     -7.49135613	     -0.43547894	      1.02557626	      0.34935050	      4.88587090	      5.22726371	      0.70348730	    -13.05125130	     -0.20874097	    -10.61681837	      0.39818058	     25.24036688	     -9.50110537	    -12.89736586	    -66.68197521	      4.00925727	    -14.63677815	     -2.50243332	    -13.20111969	      2.73864577	     11.84006156
      0.76233333	      1.38892942	     -2.20094754	     -7.62699583	     -0.43002785	      1.02653545	      0.34975831	      4.17573969	      5.10218751	      0.92415367	    -12.65484472	     -0.24391071	    -10.68270401	      0.28533238	     25.27332293	     -9.40786031	    -13.14348480	    -65.44076623	      4.02172358	    -14.65611891	     -2.72451462	    -13.37459578	      2.55989243	     12.00709797
      0.76650000	      1.48503415	     -2.11945621	     -7.72970089	     -0.42460612	      1.02726982	      0.35006102	      3.57143208	      4.99035454	      1.10642576	    -12.30336740	     -0.23113941	    -10.82453373	      0.19794945	     25.39367471	     -9.30550695	    -13.34666923	    -64.16491935	      3.97008970	    -14.80552281	     -2.87786447	    -13.45758369	      2.41679969	     12.07820268
      0.77066667	      1.60418833	     -2.05049038	     -7.84208683	     -0.41916123	      1.02801438	      0.35039589	      2.93508332	      4.88636231	      1.28833392	    -11.93567302	     -0.24733818	    -10.91417746	      0.08084552	     25.44937069	     -9.22216282	    -13.56904790	    -62.81973850	      3.93563447	    -14.79965597	     -3.06171889	    -13.56397613	      2.27761347	     12.21150947
      0.77483333	      1.53996593	     -2.01691972	     -7.85948112	     -0.41372536	      1.02831167	      0.35047258	      2.51732077	      4.83225960	      1.35113588	    -11.62093757	     -0.25697023	    -11.03859682	      0.04561540	     25.74155982	     -9.13621245	    -13.64640777	    -61.49375962	      3.93691768	    -14.78591517	     -3.10952847	    -13.46228222	      2.23861872	     12.24938721
      0.77900000	      1.79739611	     -1.94690114	     -8.01481508	     -0.40831863	      1.02920565	      0.35090720	      1.73771318	      4.71000521	      1.59793855	    -11.25921743	     -0.22811276	    -11.15886597	     -0.08891720	     25.56025300	     -9.05444336	    -13.96090844	    -59.98974224	      3.84026079	    -14.81976562	     -3.28165435	    -13.73636935	      2.06025989	     12.38318959
